# Blender 3.6.2
# www.blender.org
mtllib board.mtl
o Plane.001
v -22.585321 0.000000 22.585321
v 22.585331 0.000000 22.585331
v -22.585331 0.000000 -22.585331
v 22.585331 0.000000 -22.585331
v -22.585331 1.625412 -22.585331
v -22.585331 1.625412 22.585331
v 22.585331 1.625412 22.585331
v 22.585331 1.625412 -22.585331
v -24.843863 1.625412 -24.843863
v -24.843863 1.625412 24.843863
v 24.843863 1.625412 24.843863
v 24.843863 1.625412 -24.843863
v -24.843863 0.000000 -24.843863
v -24.843863 0.000000 24.843863
v 24.843863 0.000000 24.843863
v 24.843863 0.000000 -24.843863
vn -0.0000 1.0000 -0.0000
vn -1.0000 -0.0000 -0.0000
vn 1.0000 -0.0000 -0.0000
vn -0.0000 -0.0000 1.0000
vn -0.0000 -0.0000 -1.0000
vt 0.045455 0.045455
vt 0.954545 0.045455
vt 0.954545 0.954545
vt 0.045455 0.954545
vt 1.000000 0.000000
vt 1.000000 1.000000
vt 0.769560 0.967924
vt 0.769560 0.984073
vt 0.769560 0.984073
vt 0.769560 0.967924
vt 0.320776 0.967924
vt 0.320776 0.984073
vt 0.320776 0.984073
vt 0.320776 0.967924
vt 0.000000 1.000000
vt 0.000000 0.000000
vt 0.791999 0.984073
vt 0.791999 0.967924
vt 0.298337 0.967924
vt 0.298337 0.984073
vt 0.298337 0.984073
vt 0.298337 0.967924
vt 0.791999 0.967924
vt 0.791999 0.984073
s 0
usemtl Board.001
f 1/1/1 2/2/1 4/3/1 3/4/1
f 7/2/1 11/5/1 12/6/1 8/3/1
f 2/7/2 7/8/2 8/9/2 4/10/2
f 3/11/3 5/12/3 6/13/3 1/14/3
f 4/10/4 8/9/4 5/12/4 3/11/4
f 1/14/5 6/13/5 7/8/5 2/7/5
f 5/4/1 9/15/1 10/16/1 6/1/1
f 8/3/1 12/6/1 9/15/1 5/4/1
f 6/1/1 10/16/1 11/5/1 7/2/1
f 12/17/5 16/18/5 13/19/5 9/20/5
f 10/21/4 14/22/4 15/23/4 11/24/4
f 11/24/3 15/23/3 16/18/3 12/17/3
f 9/20/2 13/19/2 14/22/2 10/21/2
