# Blender 3.6.2
# www.blender.org
mtllib knight.mtl
o Cube.001
v 1.250000 5.227961 0.655908
v -1.250000 5.227961 0.655908
v -1.000000 4.230698 -0.896819
v -0.751801 4.230698 -1.164134
v 1.000000 4.230698 -0.896819
v 0.751801 4.230698 -1.164134
v -0.751801 3.984227 1.204784
v -0.641992 4.269592 1.420680
v -1.015507 4.444656 0.911608
v 0.751801 3.984227 1.204784
v 1.015507 4.444656 0.911608
v 0.641992 4.269592 1.420680
v -1.000000 6.225224 -0.625075
v -0.751801 6.225224 -0.896869
v 0.751801 6.225224 -0.896869
v 1.000000 6.225224 -0.625075
v 0.751801 6.473423 0.299143
v 0.751801 6.178443 0.542893
v 1.005795 6.025691 0.053089
v -0.751801 6.473423 0.299143
v -1.005795 6.025691 0.053090
v -0.751801 6.178443 0.542893
v 0.513176 4.323484 1.760328
v 0.783340 4.580273 1.812618
v 0.431391 4.602932 2.066589
v -0.513176 4.323484 1.760328
v -0.431391 4.602932 2.066589
v -0.783339 4.580273 1.812618
v 0.666345 5.660103 2.017150
v 0.919445 5.703605 1.771440
v 0.751801 5.950942 1.728247
v -0.666345 5.660103 2.017150
v -0.751801 5.950942 1.728247
v -0.919444 5.703605 1.771441
v -0.751801 6.323240 -0.813874
v -1.000000 6.274368 -0.581408
v -0.751801 6.565836 -0.411052
v 0.751801 6.323240 -0.813874
v 0.751801 6.565836 -0.411052
v 1.000000 6.274368 -0.581408
v 1.000000 6.413078 0.050944
v 0.751801 6.668443 0.056708
v 0.751801 6.473423 0.299143
v -0.751801 6.473423 0.299143
v -0.751801 6.668443 0.056708
v -1.000000 6.413078 0.050944
v 1.034163 5.227961 -1.028570
v 0.751801 5.227961 -1.295188
v -0.751801 5.227961 -1.295188
v -1.034163 5.227961 -1.028570
v 0.775831 4.982617 1.911331
v 0.431165 4.935747 2.151165
v -0.431164 4.935747 2.151165
v -0.775831 4.982617 1.911331
v -1.333681 1.271723 -0.892313
v -1.100738 1.678391 -0.876286
v -0.853020 1.657286 -1.133432
v -1.027196 1.261481 -1.202294
v 0.853020 1.657286 -1.133433
v 1.100738 1.678391 -0.876286
v 1.333681 1.271723 -0.892313
v 1.027196 1.261481 -1.202294
v 1.100738 1.678391 0.883206
v 0.853159 1.656643 1.134735
v 1.027196 1.261481 1.202294
v 1.333681 1.271723 0.892313
v -0.853159 1.656643 1.134735
v -1.100738 1.678391 0.883206
v -1.333681 1.271723 0.892313
v -1.027196 1.261481 1.202294
v -0.751801 2.465153 -1.378571
v -0.789899 1.995875 -1.299304
v -1.000000 2.218765 -1.141330
v 0.789899 1.995875 -1.299304
v 0.751801 2.465153 -1.378571
v 1.000000 2.218765 -1.141330
v 1.000000 2.218765 1.152418
v 0.751801 2.465235 1.384967
v 0.789799 1.996518 1.303709
v -0.789799 1.996518 1.303709
v -0.751801 2.465235 1.384967
v -1.000000 2.218765 1.152418
v -1.498363 0.821241 1.079019
v -1.234189 0.818357 1.337950
v -1.067054 1.226892 1.237911
v -1.397143 1.216650 0.949022
v -1.498363 0.821241 -1.079018
v -1.397143 1.216650 -0.949021
v -1.067054 1.226892 -1.237910
v -1.234189 0.818357 -1.337949
v 1.234189 0.818357 1.337950
v 1.498363 0.821241 1.079019
v 1.397143 1.216650 0.949022
v 1.067054 1.226892 1.237910
v 1.498363 0.821241 -1.079019
v 1.234189 0.818357 -1.337950
v 1.067054 1.226892 -1.237910
v 1.397143 1.216650 -0.949022
v -1.559628 0.291131 1.084173
v -1.242114 0.280390 1.408130
v -1.176950 0.663879 1.286802
v -1.438987 0.660996 1.025962
v -1.559629 0.291131 -1.084172
v -1.438987 0.660996 -1.025961
v -1.176950 0.663879 -1.286802
v -1.242115 0.280390 -1.408130
v 1.242115 0.280390 1.408130
v 1.559628 0.291131 1.084172
v 1.438987 0.660996 1.025962
v 1.176950 0.663879 1.286802
v 1.559628 0.291131 -1.084172
v 1.242114 0.280390 -1.408130
v 1.176950 0.663879 -1.286802
v 1.438987 0.660996 -1.025961
v -1.791962 0.137129 1.291781
v -1.750641 0.000000 1.537921
v -1.442038 0.147870 1.586778
v -1.791962 0.137129 -1.291781
v -1.442039 0.147870 -1.586778
v -1.750641 0.000000 -1.537921
v 1.442038 0.147870 1.586778
v 1.750641 0.000000 1.537921
v 1.791962 0.137129 1.291781
v 1.791962 0.137129 -1.291781
v 1.750641 0.000000 -1.537921
v 1.442039 0.147870 -1.586778
vn -0.9854 -0.1607 -0.0554
vn -0.0000 -0.9876 0.1567
vn 0.9430 -0.1406 0.3017
vn -0.0000 0.1206 -0.9927
vn -0.0000 0.9821 0.1885
vn -0.9624 0.1681 0.2135
vn -0.0000 0.1178 0.9930
vn -0.9999 0.0136 -0.0038
vn 0.9999 0.0136 -0.0038
vn -0.0000 0.9768 -0.2143
vn 0.9624 0.1681 0.2135
vn -0.9430 -0.1406 0.3017
vn -0.0000 1.0000 -0.0000
vn -0.6554 0.7553 -0.0000
vn -0.0000 0.3709 -0.9287
vn -0.9863 0.1440 -0.0804
vn 0.9863 0.1440 -0.0804
vn -0.0000 0.6462 -0.7632
vn -0.0000 0.1819 0.9833
vn -0.0000 -0.1303 -0.9915
vn 0.9854 -0.1607 -0.0554
vn -0.0000 -0.2463 0.9692
vn 1.0000 -0.0037 -0.0036
vn -0.0000 -0.4452 0.8954
vn -0.0000 0.7174 -0.6967
vn -0.0000 0.7174 0.6967
vn 0.6554 0.7553 -0.0000
vn 0.9831 0.1833 -0.0000
vn 0.9377 -0.3474 -0.0000
vn -0.9831 0.1833 -0.0000
vn -0.0000 -0.4399 -0.8980
vn -0.9377 -0.3474 -0.0000
vn -0.0000 0.8032 -0.5958
vn -0.0000 -0.3143 -0.9493
vn -0.5525 0.8335 -0.0000
vn -0.0000 -0.3143 0.9493
vn -0.0000 -1.0000 -0.0000
vn -0.0000 0.8032 0.5958
vn 0.5525 0.8335 -0.0000
vn -0.8191 -0.1107 0.5629
vn 0.8191 -0.1107 0.5629
vn 0.8818 0.3004 0.3636
vn -0.8818 0.3004 0.3636
vn 0.4420 -0.6007 0.6662
vn -0.4420 -0.6007 0.6662
vn 0.5597 0.4954 0.6643
vn -0.5597 0.4954 0.6643
vn -0.5461 0.7176 -0.4322
vn 0.5461 0.7176 -0.4322
vn 0.6323 0.6036 0.4856
vn -0.6323 0.6036 0.4856
vn -0.6455 0.3965 -0.6527
vn 0.6455 0.3965 -0.6527
vn 0.6443 0.3899 0.6579
vn -0.6443 0.3899 0.6579
vn -0.6490 -0.0752 -0.7571
vn 0.6490 -0.0752 -0.7571
vn 0.6374 -0.0812 0.7663
vn -0.6374 -0.0812 0.7663
vn -0.6238 0.4003 0.6713
vn -0.6238 0.4003 -0.6713
vn 0.6238 0.4003 0.6713
vn 0.6238 0.4003 -0.6713
vn -0.6697 0.3244 0.6680
vn -0.6697 0.3244 -0.6680
vn 0.6697 0.3244 0.6680
vn 0.6697 0.3244 -0.6680
vn -0.4383 0.7519 0.4925
vn -0.4383 0.7519 -0.4925
vn 0.4383 0.7519 0.4925
vn 0.4383 0.7519 -0.4925
vn -0.7302 0.0824 -0.6782
vn -0.0000 -0.6033 0.7975
vn -0.0000 0.6370 0.7709
vn 0.6833 0.2824 -0.6733
vn -0.6833 0.2824 -0.6733
vn -0.0000 -0.7387 0.6740
vn -0.0000 0.7047 0.7095
vn 0.5719 -0.1928 0.7973
vn -0.5719 -0.1928 0.7973
vn -0.6687 -0.6809 0.2986
vn -0.7568 0.6377 0.1432
vn 0.7568 0.6377 0.1432
vn 0.6687 -0.6809 0.2986
vn -0.0000 0.8566 -0.5159
vn 0.7071 0.6907 -0.1515
vn -0.0000 0.7792 0.6268
vn -0.7071 0.6907 -0.1515
vn 0.7088 0.0145 0.7053
vn -0.7088 0.0145 0.7053
vn -0.6406 0.5009 -0.5820
vn 0.6406 0.5009 -0.5820
vn 0.7055 -0.1045 -0.7010
vn -0.7055 -0.1045 -0.7010
vn 0.6321 -0.0188 0.7747
vn -0.6321 -0.0188 0.7747
vn 0.7140 -0.1964 -0.6720
vn 0.7060 -0.2057 0.6777
vn -0.7060 -0.2057 0.6777
vn -0.8677 0.4970 -0.0000
vn -0.0000 0.1685 0.9857
vn 0.8677 0.4970 -0.0000
vn -0.0000 0.1714 -0.9852
vn -0.7140 -0.1964 -0.6720
vn 0.7302 0.0824 -0.6782
vn 0.6985 0.0771 0.7115
vn -0.6985 0.0771 0.7115
vn -0.0000 -0.1708 0.9853
vn -0.0000 -0.1666 -0.9860
vn -0.9688 0.2480 -0.0000
vn -0.0000 0.2378 0.9713
vn 0.9688 0.2480 -0.0000
vn -0.0000 0.2378 -0.9713
vn 0.3732 0.8386 0.3967
vn 0.3732 0.8386 -0.3967
vn -0.3732 0.8386 -0.3967
vn -0.3732 0.8386 0.3967
vn -0.9507 0.3101 -0.0000
vn -0.0000 0.3016 0.9534
vn 0.9507 0.3101 -0.0000
vn -0.0000 0.3016 -0.9534
vn 0.6296 -0.4443 -0.6374
vn -0.6296 -0.4443 -0.6374
vn -0.6296 -0.4443 0.6374
vn 0.6296 -0.4443 0.6374
vn -0.9575 -0.2885 -0.0000
vn -0.0000 -0.3137 0.9495
vn 0.9575 -0.2885 -0.0000
vn -0.0000 -0.3137 -0.9495
vn -0.3024 0.8957 0.3260
vn 0.3024 0.8957 0.3260
vn 0.3024 0.8957 -0.3260
vn -0.3024 0.8957 -0.3260
vn -1.0000 -0.0037 -0.0036
vt 0.625000 0.971437
vt 0.625000 0.767335
vt 0.625000 0.750000
vt 0.625000 0.965837
vt 0.625000 0.713568
vt 0.625000 0.536432
vt 0.625000 0.540672
vt 0.625000 0.709328
vt 0.625000 0.500000
vt 0.625000 0.500000
vt 0.625000 0.500000
vt 0.570154 0.906926
vt 0.625000 0.906925
vt 0.625000 0.343075
vt 0.570154 0.343075
vt 0.625000 0.531025
vt 0.625000 0.718975
vt 0.625000 0.718975
vt 0.625000 0.531025
vt 0.625000 0.750000
vt 0.570157 0.531025
vt 0.617343 0.531025
vt 0.617343 0.718975
vt 0.570157 0.718975
vt 0.625000 0.943187
vt 0.625000 0.790313
vt 0.625000 0.808047
vt 0.625000 0.940843
vt 0.625000 0.459687
vt 0.625000 0.306813
vt 0.625000 0.309156
vt 0.625000 0.441953
vt 0.688622 0.531025
vt 0.811378 0.531025
vt 0.811378 0.718975
vt 0.688622 0.718975
vt 0.625000 0.500000
vt 0.625000 0.500000
vt 0.625000 0.750000
vt 0.625000 0.750000
vt 0.625000 0.718975
vt 0.500000 0.779739
vt 0.500000 0.970261
vt 0.500000 0.971227
vt 0.500000 0.778773
vt 0.625000 0.218975
vt 0.625000 0.031025
vt 0.625000 0.031025
vt 0.625000 0.806835
vt 0.625000 0.943187
vt 0.625000 0.284163
vt 0.625000 0.306813
vt 0.625000 0.443165
vt 0.625000 0.703651
vt 0.625000 0.546349
vt 0.625000 0.534794
vt 0.625000 0.715206
vt 0.625000 0.482665
vt 0.625000 0.278563
vt 0.625000 0.284163
vt 0.625000 0.703693
vt 0.625000 0.546307
vt 0.562500 0.273662
vt 0.625000 0.278563
vt 0.631647 0.472236
vt 0.562500 0.476814
vt 0.517709 0.528602
vt 0.544791 0.529769
vt 0.544791 0.720231
vt 0.517709 0.721398
vt 0.500000 0.916485
vt 0.500000 0.333515
vt 0.500000 0.331787
vt 0.500000 0.918213
vt 0.500000 0.527838
vt 0.500000 0.722162
vt 0.500000 0.722738
vt 0.500000 0.527262
vt 0.500000 0.279739
vt 0.500000 0.470261
vt 0.500000 0.471227
vt 0.500000 0.278773
vt 0.519442 0.277629
vt 0.562500 0.273662
vt 0.562500 0.476814
vt 0.519442 0.472949
vt 0.500000 0.274116
vt 0.500000 0.475884
vt 0.500000 0.475211
vt 0.500000 0.274790
vt 0.519442 0.777051
vt 0.562500 0.773186
vt 0.562500 0.976338
vt 0.519442 0.972371
vt 0.517760 0.914184
vt 0.544740 0.910694
vt 0.544740 0.339306
vt 0.517760 0.335816
vt 0.500000 0.774116
vt 0.500000 0.975884
vt 0.500000 0.975210
vt 0.500000 0.774790
vt 0.500000 0.928116
vt 0.500000 0.321884
vt 0.500000 0.316815
vt 0.500000 0.933185
vt 0.500000 0.934650
vt 0.500000 0.315350
vt 0.500000 0.317087
vt 0.500000 0.932913
vt 0.500000 0.775369
vt 0.500000 0.974631
vt 0.500000 0.976738
vt 0.500000 0.773262
vt 0.500000 0.521783
vt 0.500000 0.728217
vt 0.500000 0.727638
vt 0.500000 0.522362
vt 0.500000 0.745421
vt 0.500000 0.942493
vt 0.500000 0.307507
vt 0.500000 0.504579
vt 0.500000 0.523961
vt 0.500000 0.726039
vt 0.500000 0.727728
vt 0.500000 0.522272
vt 0.500000 0.275369
vt 0.500000 0.474631
vt 0.500000 0.476738
vt 0.500000 0.273262
vt 0.631646 0.777764
vt 0.625000 0.000000
vt 0.625000 0.031025
vt 0.625000 0.250000
vt 0.625000 0.436378
vt 0.625000 0.813622
vt 0.625000 0.313622
vt 0.625000 0.936378
s 0
usemtl Piece_Material
f 3/1/1 9/2/1 2/3/1 50/4/1
f 8/5/2 12/6/2 23/7/2 26/8/2
f 11/9/3 1/10/3 51/11/3 24/11/3
f 71/12/4 4/13/4 6/14/4 75/15/4
f 18/16/5 22/17/5 33/18/5 31/19/5
f 21/20/6 2/3/6 54/20/6 34/20/6
f 78/21/7 10/22/7 7/23/7 81/24/7
f 13/25/8 21/26/8 46/27/8 36/28/8
f 19/29/9 16/30/9 40/31/9 41/32/9
f 42/33/10 39/34/10 37/35/10 45/36/10
f 1/10/11 19/37/11 30/11/11 51/38/11
f 2/3/12 9/39/12 28/20/12 54/40/12
f 20/41/13 17/19/13 43/19/13 44/41/13
f 69/42/14 55/43/14 88/44/14 86/45/14
f 48/46/15 49/47/15 14/48/15 15/46/15
f 50/4/16 2/3/16 21/49/16 13/50/16
f 1/10/17 47/51/17 16/52/17 19/53/17
f 15/46/18 14/47/18 35/47/18 38/46/18
f 53/54/19 52/55/19 29/56/19 32/57/19
f 6/46/20 4/47/20 49/47/20 48/46/20
f 11/58/21 5/59/21 47/60/21 1/10/21
f 27/61/22 25/62/22 52/55/22 53/54/22
f 76/63/23 5/64/23 11/65/23 77/66/23
f 64/67/24 79/68/24 80/69/24 67/70/24
f 58/71/25 62/72/25 97/73/25 89/74/25
f 65/75/26 70/76/26 85/77/26 94/78/26
f 61/79/27 66/80/27 93/81/27 98/82/27
f 60/83/28 76/84/28 77/85/28 63/86/28
f 95/87/29 92/88/29 109/89/29 114/90/29
f 68/91/30 82/92/30 73/93/30 56/94/30
f 57/95/31 72/96/31 74/97/31 59/98/31
f 83/99/32 87/100/32 104/101/32 102/102/32
f 106/103/33 112/104/33 126/105/33 119/106/33
f 90/107/34 96/108/34 113/109/34 105/110/34
f 99/111/35 103/112/35 118/113/35 115/114/35
f 91/115/36 84/116/36 101/117/36 110/118/36
f 116/119/37 120/120/37 125/121/37 122/122/37
f 107/123/38 100/124/38 117/125/38 121/126/38
f 111/127/39 108/128/39 123/129/39 124/130/39
f 7/23/40 8/5/40 9/131/40
f 10/22/41 11/9/41 12/6/41
f 17/19/42 18/16/42 19/29/42
f 20/41/43 21/20/43 22/17/43
f 23/7/44 24/11/44 25/62/44
f 26/8/45 27/61/45 28/20/45
f 29/56/46 30/11/46 31/19/46
f 32/57/47 33/18/47 34/20/47
f 35/47/48 36/132/48 37/133/48
f 38/46/49 39/46/49 40/134/49
f 41/32/50 42/135/50 43/11/50
f 44/20/51 45/136/51 46/27/51
f 55/43/52 56/94/52 57/95/52 58/71/52
f 59/98/53 60/83/53 61/79/53 62/72/53
f 63/86/54 64/67/54 65/75/54 66/80/54
f 67/70/55 68/91/55 69/42/55 70/76/55
f 71/12/56 72/96/56 73/93/56
f 74/97/57 75/15/57 76/84/57
f 77/66/58 78/21/58 79/68/58
f 80/69/59 81/24/59 82/92/59
f 83/99/60 84/116/60 85/77/60 86/45/60
f 87/100/61 88/44/61 89/74/61 90/107/61
f 91/115/62 92/88/62 93/81/62 94/78/62
f 95/87/63 96/108/63 97/73/63 98/82/63
f 99/111/64 100/124/64 101/117/64 102/102/64
f 103/112/65 104/101/65 105/110/65 106/103/65
f 107/123/66 108/128/66 109/89/66 110/118/66
f 111/127/67 112/104/67 113/109/67 114/90/67
f 115/114/68 116/119/68 117/125/68
f 118/113/69 119/106/69 120/120/69
f 121/126/70 122/122/70 123/129/70
f 124/130/71 125/121/71 126/105/71
f 73/93/72 3/1/72 4/13/72 71/12/72
f 12/6/73 8/5/73 7/23/73 10/22/73
f 17/19/74 20/41/74 22/17/74 18/16/74
f 48/46/75 15/46/75 16/52/75 47/51/75
f 50/132/76 13/132/76 14/48/76 49/47/76
f 25/62/77 27/61/77 26/8/77 23/7/77
f 31/19/78 33/18/78 32/57/78 29/56/78
f 52/55/79 25/62/79 24/11/79 51/11/79
f 54/40/80 28/20/80 27/61/80 53/54/80
f 8/5/81 26/8/81 28/20/81 9/39/81
f 33/18/82 22/17/82 21/20/82 34/20/82
f 30/11/83 19/37/83 18/16/83 31/19/83
f 11/9/84 24/11/84 23/7/84 12/6/84
f 37/133/85 39/46/85 38/46/85 35/47/85
f 39/137/86 42/135/86 41/32/86 40/31/86
f 42/33/87 45/36/87 44/41/87 43/19/87
f 45/136/88 37/138/88 36/28/88 46/27/88
f 19/29/89 41/32/89 43/19/89 17/19/89
f 46/27/90 21/26/90 20/41/90 44/41/90
f 13/132/91 36/132/91 35/47/91 14/47/91
f 40/31/92 16/30/92 15/46/92 38/46/92
f 6/46/93 48/46/93 47/60/93 5/59/93
f 3/132/94 50/132/94 49/47/94 4/47/94
f 29/56/95 52/55/95 51/38/95 30/11/95
f 34/20/96 54/20/96 53/54/96 32/57/96
f 76/84/97 60/83/97 59/98/97 74/97/97
f 79/68/98 64/67/98 63/86/98 77/85/98
f 82/92/99 68/91/99 67/70/99 80/69/99
f 68/91/100 56/94/100 55/43/100 69/42/100
f 64/67/101 67/70/101 70/76/101 65/75/101
f 60/83/102 63/86/102 66/80/102 61/79/102
f 57/95/103 59/98/103 62/72/103 58/71/103
f 56/94/104 73/93/104 72/96/104 57/95/104
f 5/64/105 76/63/105 75/15/105 6/14/105
f 10/22/106 78/21/106 77/66/106 11/65/106
f 9/131/107 82/92/107 81/24/107 7/23/107
f 78/21/108 81/24/108 80/69/108 79/68/108
f 71/12/109 75/15/109 74/97/109 72/96/109
f 86/45/110 88/44/110 87/100/110 83/99/110
f 94/78/111 85/77/111 84/116/111 91/115/111
f 98/82/112 93/81/112 92/88/112 95/87/112
f 89/74/113 97/73/113 96/108/113 90/107/113
f 65/75/114 94/78/114 93/81/114 66/80/114
f 97/73/115 62/72/115 61/79/115 98/82/115
f 58/71/116 89/74/116 88/44/116 55/43/116
f 85/77/117 70/76/117 69/42/117 86/45/117
f 102/102/118 104/101/118 103/112/118 99/111/118
f 110/118/119 101/117/119 100/124/119 107/123/119
f 114/90/120 109/89/120 108/128/120 111/127/120
f 105/110/121 113/109/121 112/104/121 106/103/121
f 95/87/122 114/90/122 113/109/122 96/108/122
f 104/101/123 87/100/123 90/107/123 105/110/123
f 83/99/124 102/102/124 101/117/124 84/116/124
f 109/89/125 92/88/125 91/115/125 110/118/125
f 115/114/126 118/113/126 120/120/126 116/119/126
f 121/126/127 117/125/127 116/119/127 122/122/127
f 124/130/128 123/129/128 122/122/128 125/121/128
f 119/106/129 126/105/129 125/121/129 120/120/129
f 99/111/130 115/114/130 117/125/130 100/124/130
f 123/129/131 108/128/131 107/123/131 121/126/131
f 126/105/132 112/104/132 111/127/132 124/130/132
f 106/103/133 119/106/133 118/113/133 103/112/133
f 82/92/134 9/131/134 3/1/134 73/93/134
