# Blender 3.6.2
# www.blender.org
mtllib rook.mtl
o Cylinder.001
v 0.000000 0.000000 -1.845523
v 0.706251 0.000000 -1.705041
v 1.304982 0.000000 -1.304982
v 1.705041 0.000000 -0.706251
v 1.845523 0.000000 -0.000000
v 1.705041 0.000000 0.706251
v 1.304982 0.000000 1.304982
v 0.706251 0.000000 1.705041
v 0.000000 0.000000 1.845523
v -0.706251 0.000000 1.705041
v -1.304982 0.000000 1.304982
v -1.705041 0.000000 0.706251
v -1.845523 0.000000 -0.000000
v -1.705041 0.000000 -0.706251
v -1.304982 0.000000 -1.304982
v -0.706251 0.000000 -1.705041
v -0.000000 1.525216 -1.304333
v 0.499147 1.525216 -1.205047
v 0.922303 1.525216 -0.922303
v 1.205047 1.525216 -0.499147
v 1.304333 1.525216 0.000000
v 1.205047 1.525216 0.499147
v 0.922303 1.525216 0.922303
v 0.499147 1.525216 1.205047
v -0.000000 1.525216 1.304333
v -0.499147 1.525216 1.205047
v -0.922303 1.525216 0.922303
v -1.205047 1.525216 0.499147
v -1.304333 1.525216 0.000000
v -1.205047 1.525216 -0.499147
v -0.922303 1.525216 -0.922303
v -0.499147 1.525216 -1.205047
v 0.637569 1.093932 -1.539229
v 1.178075 1.093932 -1.178075
v 1.539229 1.093932 -0.637569
v 1.666049 1.093932 -0.000000
v 1.539229 1.093932 0.637569
v 1.178075 1.093932 1.178075
v 0.637569 1.093932 1.539229
v 0.000000 1.093932 1.666049
v -0.637569 1.093932 1.539229
v -1.178075 1.093932 1.178075
v -1.539229 1.093932 0.637569
v -1.666049 1.093932 -0.000000
v -1.539229 1.093932 -0.637569
v -1.178075 1.093932 -1.178075
v -0.637569 1.093932 -1.539229
v 0.000000 1.093932 -1.666049
v 0.525510 0.546966 -1.268694
v 0.971016 0.546966 -0.971016
v 1.268694 0.546966 -0.525510
v 1.373224 0.546966 -0.000000
v 1.268694 0.546966 0.525510
v 0.971016 0.546966 0.971016
v 0.525510 0.546966 1.268694
v 0.000000 0.546966 1.373224
v -0.525510 0.546966 1.268694
v -0.971016 0.546966 0.971016
v -1.268694 0.546966 0.525510
v -1.373224 0.546966 -0.000000
v -1.268694 0.546966 -0.525510
v -0.971016 0.546966 -0.971016
v -0.525510 0.546966 -1.268694
v 0.000000 0.546966 -1.373224
v -0.000000 4.979724 -1.008214
v 0.385827 4.979724 -0.931468
v 0.712915 4.979724 -0.712915
v 0.931468 4.979724 -0.385827
v 1.008214 4.979724 0.000000
v 0.931468 4.979724 0.385827
v 0.712915 4.979724 0.712915
v 0.385827 4.979724 0.931468
v -0.000000 4.979724 1.008214
v -0.385827 4.979724 0.931468
v -0.712915 4.979724 0.712915
v -0.931468 4.979724 0.385827
v -1.008214 4.979724 0.000000
v -0.931468 4.979724 -0.385827
v -0.712915 4.979724 -0.712915
v -0.385827 4.979724 -0.931468
v -0.000000 4.979724 -1.251583
v 0.478960 4.979724 -1.156312
v 0.885003 4.979724 -0.885003
v 1.156312 4.979724 -0.478960
v 1.251583 4.979724 0.000000
v 1.156312 4.979724 0.478960
v 0.885003 4.979724 0.885003
v 0.478960 4.979724 1.156312
v -0.000000 4.979724 1.251583
v -0.478960 4.979724 1.156312
v -0.885003 4.979724 0.885003
v -1.156312 4.979724 0.478960
v -1.251583 4.979724 0.000000
v -1.156312 4.979724 -0.478960
v -0.885003 4.979724 -0.885003
v -0.478960 4.979724 -1.156312
v -0.570378 6.103067 -1.377013
v -1.053921 6.103067 -1.053921
v -1.377013 6.103067 -0.570378
v -1.490469 6.103067 0.000000
v -1.377013 6.103067 0.570378
v -1.053921 6.103067 1.053921
v -0.570378 6.103067 1.377013
v -0.000000 6.103067 1.490469
v 0.570378 6.103067 1.377013
v 1.053921 6.103067 1.053921
v 1.377013 6.103067 0.570378
v 1.490469 6.103067 0.000000
v 1.377013 6.103067 -0.570378
v 1.053921 6.103067 -1.053921
v 0.570378 6.103067 -1.377013
v -0.000000 6.103067 -1.490469
v -0.000000 6.103067 -1.149035
v 0.439717 6.103067 -1.061570
v 0.812491 6.103067 -0.812491
v 1.061570 6.103067 -0.439717
v 1.149035 6.103067 0.000000
v 1.061570 6.103067 0.439717
v 0.812491 6.103067 0.812491
v 0.439717 6.103067 1.061570
v -0.000000 6.103067 1.149035
v -0.439717 6.103067 1.061570
v -0.812491 6.103067 0.812491
v -1.061570 6.103067 0.439717
v -1.149035 6.103067 0.000000
v -1.061570 6.103067 -0.439717
v -0.812491 6.103067 -0.812491
v -0.439717 6.103067 -1.061570
v 0.570378 6.405358 -1.377013
v 1.053921 6.405358 -1.053921
v 1.377013 6.405358 -0.570378
v 1.490469 6.405358 0.000000
v 1.377013 6.405358 0.570378
v 1.053921 6.405358 1.053921
v 0.570378 6.405358 1.377013
v -0.000000 6.405358 1.490469
v -0.570378 6.405358 1.377013
v -1.053921 6.405358 1.053921
v -1.377013 6.405358 0.570378
v -1.490469 6.405358 0.000000
v -1.377013 6.405358 -0.570378
v -1.053921 6.405358 -1.053921
v -0.570378 6.405358 -1.377013
v -0.000000 6.405358 -1.490469
v 1.061570 6.405358 -0.439717
v -0.812491 6.405358 0.812491
v 0.812491 6.405358 -0.812491
v -0.439717 6.405358 1.061570
v -0.000000 6.405358 -1.149035
v 0.439717 6.405358 -1.061570
v -0.000000 6.405358 1.149035
v -0.439717 6.405358 -1.061570
v 0.439717 6.405358 1.061570
v -0.812491 6.405358 -0.812491
v 0.812491 6.405358 0.812491
v -1.061570 6.405358 -0.439717
v 1.149035 6.405358 0.000000
v 1.061570 6.405358 0.439717
v -1.061570 6.405358 0.439717
v -1.149035 6.405358 0.000000
v -0.000000 5.285314 -1.490469
v -0.000000 5.285314 1.490469
v 0.570378 5.285314 -1.377013
v -0.570378 5.285314 1.377013
v 1.053921 5.285314 -1.053921
v -1.053921 5.285314 1.053921
v 1.377013 5.285314 -0.570378
v -1.377013 5.285314 0.570378
v 1.490469 5.285314 0.000000
v -1.490469 5.285314 0.000000
v 1.377013 5.285314 0.570378
v -1.377013 5.285314 -0.570378
v 1.053921 5.285314 1.053921
v 0.570378 5.285314 1.377013
v -1.053921 5.285314 -1.053921
v -0.570378 5.285314 -1.377013
v -0.439717 5.850342 -1.061570
v 0.000000 5.850342 -1.149035
v -0.812491 5.850342 -0.812491
v -1.061570 5.850342 -0.439717
v -1.149035 5.850342 0.000000
v -1.061570 5.850342 0.439717
v -0.812491 5.850342 0.812491
v -0.439717 5.850342 1.061570
v 0.000000 5.850342 1.149035
v 0.439717 5.850342 1.061570
v 0.812491 5.850342 0.812491
v 1.061570 5.850342 0.439717
v 1.149035 5.850342 0.000000
v 1.061570 5.850342 -0.439717
v 0.812491 5.850342 -0.812491
v 0.439717 5.850342 -1.061570
vn -0.0000 -1.0000 -0.0000
vn -0.2932 0.6426 -0.7079
vn -0.0000 0.6426 -0.7662
vn -0.5418 0.6426 -0.5418
vn -0.7079 0.6426 -0.2932
vn -0.7662 0.6426 -0.0000
vn -0.7079 0.6426 0.2932
vn -0.5418 0.6426 0.5418
vn -0.2932 0.6426 0.7079
vn -0.0000 0.6426 0.7662
vn 0.2932 0.6426 0.7079
vn 0.5418 0.6426 0.5418
vn 0.7079 0.6426 0.2932
vn 0.7662 0.6426 -0.0000
vn 0.7079 0.6426 -0.2932
vn 0.5418 0.6426 -0.5418
vn 0.2932 0.6426 -0.7079
vn -0.0000 -0.4720 -0.8816
vn 0.3374 -0.4720 -0.8145
vn 0.6234 -0.4720 -0.6234
vn 0.8145 -0.4720 -0.3374
vn 0.8816 -0.4720 -0.0000
vn 0.8145 -0.4720 0.3374
vn 0.6234 -0.4720 0.6234
vn 0.3374 -0.4720 0.8145
vn -0.0000 -0.4720 0.8816
vn -0.3374 -0.4720 0.8145
vn -0.6234 -0.4720 0.6234
vn -0.8145 -0.4720 0.3374
vn -0.8816 -0.4720 -0.0000
vn -0.8145 -0.4720 -0.3374
vn -0.6234 -0.4720 -0.6234
vn -0.3374 -0.4720 -0.8145
vn -0.2896 0.6536 -0.6993
vn -0.0000 0.6536 -0.7569
vn -0.5352 0.6536 -0.5352
vn -0.6993 0.6536 -0.2896
vn -0.7569 0.6536 -0.0000
vn -0.6993 0.6536 0.2896
vn -0.5352 0.6536 0.5352
vn -0.2896 0.6536 0.6993
vn -0.0000 0.6536 0.7569
vn 0.2896 0.6536 0.6993
vn 0.5352 0.6536 0.5352
vn 0.6993 0.6536 0.2896
vn 0.7569 0.6536 -0.0000
vn 0.6993 0.6536 -0.2896
vn 0.5352 0.6536 -0.5352
vn 0.2896 0.6536 -0.6993
vn -0.7045 0.0854 0.7045
vn -0.3813 0.0854 0.9205
vn 0.7045 0.0854 -0.7045
vn 0.3813 0.0854 -0.9205
vn -0.0000 0.0854 0.9963
vn -0.0000 0.0854 -0.9963
vn -0.3813 0.0854 -0.9205
vn 0.3813 0.0854 0.9205
vn -0.7045 0.0854 -0.7045
vn 0.7045 0.0854 0.7045
vn -0.9205 0.0854 -0.3813
vn 0.9205 0.0854 0.3813
vn -0.9963 0.0854 -0.0000
vn 0.9963 0.0854 -0.0000
vn -0.9205 0.0854 0.3813
vn 0.9205 0.0854 -0.3813
vn 0.3827 -0.0000 0.9239
vn -0.0000 1.0000 -0.0000
vn 0.9978 -0.0000 -0.0662
vn 0.9472 -0.0000 -0.3207
vn 0.9808 -0.0000 -0.1951
vn -0.3827 -0.0000 -0.9239
vn 0.3827 -0.0000 -0.9239
vn -0.8965 -0.0000 -0.4430
vn -0.7523 -0.0000 -0.6588
vn -0.8315 -0.0000 -0.5556
vn -0.0662 -0.0000 -0.9978
vn -0.3207 -0.0000 -0.9472
vn -0.1951 -0.0000 -0.9808
vn -0.0000 -0.0000 1.0000
vn -0.7071 -0.0000 -0.7071
vn 0.6588 -0.0000 -0.7523
vn 0.4430 -0.0000 -0.8965
vn 0.5556 -0.0000 -0.8315
vn 0.3207 -0.0000 0.9472
vn 0.0662 -0.0000 0.9978
vn -0.0000 -0.0000 -1.0000
vn -0.3827 -0.0000 0.9239
vn -0.4430 -0.0000 0.8965
vn 0.7071 -0.0000 -0.7071
vn -0.7071 -0.0000 0.7071
vn -0.6588 -0.0000 0.7523
vn 0.9239 -0.0000 -0.3827
vn -0.9239 -0.0000 0.3827
vn -0.9472 -0.0000 0.3207
vn 1.0000 -0.0000 -0.0000
vn -1.0000 -0.0000 -0.0000
vn -0.9978 -0.0000 0.0662
vn 0.9239 -0.0000 0.3827
vn 0.8965 -0.0000 0.4430
vn -0.9239 -0.0000 -0.3827
vn 0.7071 -0.0000 0.7071
vn 0.7523 -0.0000 0.6588
vn -0.9808 -0.0000 0.1951
vn 0.8315 -0.0000 0.5556
vn 0.1951 -0.0000 0.9808
vn -0.5556 -0.0000 0.8315
vn 0.3015 -0.6159 0.7279
vn 0.5571 -0.6159 0.5571
vn -0.5571 -0.6159 -0.5571
vn -0.7279 -0.6159 -0.3015
vn 0.7279 -0.6159 0.3015
vn -0.7878 -0.6159 -0.0000
vn 0.7878 -0.6159 -0.0000
vn -0.7279 -0.6159 0.3015
vn 0.7279 -0.6159 -0.3015
vn -0.5571 -0.6159 0.5571
vn 0.5571 -0.6159 -0.5571
vn -0.3015 -0.6159 0.7279
vn 0.3015 -0.6159 -0.7279
vn -0.0000 -0.6159 0.7878
vn -0.0000 -0.6159 -0.7878
vn -0.3015 -0.6159 -0.7279
vt 0.750000 0.490000
vt 0.841844 0.471731
vt 0.919706 0.419706
vt 0.971731 0.341844
vt 0.990000 0.250000
vt 0.971731 0.158156
vt 0.919706 0.080294
vt 0.841844 0.028269
vt 0.750000 0.010000
vt 0.658156 0.028269
vt 0.580294 0.080294
vt 0.528269 0.158156
vt 0.510000 0.250000
vt 0.528269 0.341844
vt 0.580294 0.419706
vt 0.658156 0.471731
vt 0.062500 0.625000
vt 0.062500 0.750000
vt 0.000000 0.750000
vt 0.000000 0.625000
vt 0.125000 0.625000
vt 0.125000 0.750000
vt 0.187500 0.625000
vt 0.187500 0.750000
vt 0.250000 0.625000
vt 0.250000 0.750000
vt 0.312500 0.625000
vt 0.312500 0.750000
vt 0.375000 0.625000
vt 0.375000 0.750000
vt 0.437500 0.625000
vt 0.437500 0.750000
vt 0.500000 0.625000
vt 0.500000 0.750000
vt 0.562500 0.625000
vt 0.562500 0.750000
vt 0.625000 0.625000
vt 0.625000 0.750000
vt 0.687500 0.625000
vt 0.687500 0.750000
vt 0.750000 0.625000
vt 0.750000 0.750000
vt 0.812500 0.625000
vt 0.812500 0.750000
vt 0.875000 0.625000
vt 0.875000 0.750000
vt 0.937500 0.625000
vt 0.937500 0.750000
vt 1.000000 0.625000
vt 1.000000 0.750000
vt 1.000000 0.562500
vt 0.937500 0.562500
vt 0.875000 0.562500
vt 0.812500 0.562500
vt 0.750000 0.562500
vt 0.687500 0.562500
vt 0.625000 0.562500
vt 0.562500 0.562500
vt 0.500000 0.562500
vt 0.437500 0.562500
vt 0.375000 0.562500
vt 0.312500 0.562500
vt 0.250000 0.562500
vt 0.187500 0.562500
vt 0.125000 0.562500
vt 0.062500 0.562500
vt 0.000000 0.562500
vt 0.062500 0.500000
vt 0.000000 0.500000
vt 0.125000 0.500000
vt 0.187500 0.500000
vt 0.250000 0.500000
vt 0.312500 0.500000
vt 0.375000 0.500000
vt 0.437500 0.500000
vt 0.500000 0.500000
vt 0.562500 0.500000
vt 0.625000 0.500000
vt 0.687500 0.500000
vt 0.750000 0.500000
vt 0.812500 0.500000
vt 0.875000 0.500000
vt 0.937500 0.500000
vt 1.000000 0.500000
vt 0.000000 0.000000
s 1
usemtl Piece_Material
f 1/1/1 2/2/1 3/3/1 4/4/1 5/5/1 6/6/1 7/7/1 8/8/1 9/9/1 10/10/1 11/11/1 12/12/1 13/13/1 14/14/1 15/15/1 16/16/1
f 47/17/2 32/18/2 17/19/3 48/20/3
f 46/21/4 31/22/4 32/18/2 47/17/2
f 45/23/5 30/24/5 31/22/4 46/21/4
f 44/25/6 29/26/6 30/24/5 45/23/5
f 43/27/7 28/28/7 29/26/6 44/25/6
f 42/29/8 27/30/8 28/28/7 43/27/7
f 41/31/9 26/32/9 27/30/8 42/29/8
f 40/33/10 25/34/10 26/32/9 41/31/9
f 39/35/11 24/36/11 25/34/10 40/33/10
f 38/37/12 23/38/12 24/36/11 39/35/11
f 37/39/13 22/40/13 23/38/12 38/37/12
f 36/41/14 21/42/14 22/40/13 37/39/13
f 35/43/15 20/44/15 21/42/14 36/41/14
f 34/45/16 19/46/16 20/44/15 35/43/15
f 33/47/17 18/48/17 19/46/16 34/45/16
f 48/49/3 17/50/3 18/48/17 33/47/17
f 64/51/18 48/49/18 33/47/19 49/52/19
f 49/52/19 33/47/19 34/45/20 50/53/20
f 50/53/20 34/45/20 35/43/21 51/54/21
f 51/54/21 35/43/21 36/41/22 52/55/22
f 52/55/22 36/41/22 37/39/23 53/56/23
f 53/56/23 37/39/23 38/37/24 54/57/24
f 54/57/24 38/37/24 39/35/25 55/58/25
f 55/58/25 39/35/25 40/33/26 56/59/26
f 56/59/26 40/33/26 41/31/27 57/60/27
f 57/60/27 41/31/27 42/29/28 58/61/28
f 58/61/28 42/29/28 43/27/29 59/62/29
f 59/62/29 43/27/29 44/25/30 60/63/30
f 60/63/30 44/25/30 45/23/31 61/64/31
f 61/64/31 45/23/31 46/21/32 62/65/32
f 62/65/32 46/21/32 47/17/33 63/66/33
f 63/66/33 47/17/33 48/20/18 64/67/18
f 16/68/34 63/66/34 64/67/35 1/69/35
f 15/70/36 62/65/36 63/66/34 16/68/34
f 14/71/37 61/64/37 62/65/36 15/70/36
f 13/72/38 60/63/38 61/64/37 14/71/37
f 12/73/39 59/62/39 60/63/38 13/72/38
f 11/74/40 58/61/40 59/62/39 12/73/39
f 10/75/41 57/60/41 58/61/40 11/74/40
f 9/76/42 56/59/42 57/60/41 10/75/41
f 8/77/43 55/58/43 56/59/42 9/76/42
f 7/78/44 54/57/44 55/58/43 8/77/43
f 6/79/45 53/56/45 54/57/44 7/78/44
f 5/80/46 52/55/46 53/56/45 6/79/45
f 4/81/47 51/54/47 52/55/46 5/80/46
f 3/82/48 50/53/48 51/54/47 4/81/47
f 2/83/49 49/52/49 50/53/48 3/82/48
f 1/84/35 64/51/35 49/52/49 2/83/49
f 27/30/50 26/32/51 74/32/51 75/30/50
f 19/46/52 18/48/53 66/48/53 67/46/52
f 26/32/51 25/34/54 73/34/54 74/32/51
f 17/19/55 32/18/56 80/18/56 65/19/55
f 18/48/53 17/50/55 65/50/55 66/48/53
f 25/34/54 24/36/57 72/36/57 73/34/54
f 32/18/56 31/22/58 79/22/58 80/18/56
f 24/36/57 23/38/59 71/38/59 72/36/57
f 31/22/58 30/24/60 78/24/60 79/22/58
f 23/38/59 22/40/61 70/40/61 71/38/59
f 30/24/60 29/26/62 77/26/62 78/24/60
f 22/40/61 21/42/63 69/42/63 70/40/61
f 29/26/62 28/28/64 76/28/64 77/26/62
f 21/42/63 20/44/65 68/44/65 69/42/63
f 28/28/64 27/30/50 75/30/50 76/28/64
f 20/44/65 19/46/52 67/46/52 68/44/65
f 68/44/1 67/46/1 83/46/1 84/44/1
f 75/30/1 74/32/1 90/32/1 91/30/1
f 67/46/1 66/48/1 82/48/1 83/46/1
f 74/32/1 73/34/1 89/34/1 90/32/1
f 65/19/1 80/18/1 96/18/1 81/19/1
f 66/48/1 65/50/1 81/50/1 82/48/1
f 73/34/1 72/36/1 88/36/1 89/34/1
f 80/18/1 79/22/1 95/22/1 96/18/1
f 72/36/1 71/38/1 87/38/1 88/36/1
f 79/22/1 78/24/1 94/24/1 95/22/1
f 71/38/1 70/40/1 86/40/1 87/38/1
f 78/24/1 77/26/1 93/26/1 94/24/1
f 70/40/1 69/42/1 85/42/1 86/40/1
f 77/26/1 76/28/1 92/28/1 93/26/1
f 69/42/1 68/44/1 84/44/1 85/42/1
f 76/28/1 75/30/1 91/30/1 92/28/1
f 101/28/66 124/28/66 159/28/66 139/28/66
f 101/28/67 102/30/67 123/30/67 124/28/67
f 109/44/67 110/46/67 115/46/67 116/44/67
f 108/42/68 109/44/69 131/44/70 132/42/70
f 109/44/71 116/44/71 145/44/71 131/44/71
f 103/32/67 104/34/67 121/34/67 122/32/67
f 107/40/72 118/40/72 158/40/72 133/40/72
f 111/48/67 112/50/67 113/50/67 114/48/67
f 118/85/73 119/85/74 155/85/75 158/85/75
f 97/18/67 98/22/67 127/22/67 128/18/67
f 105/36/67 106/38/67 119/38/67 120/36/67
f 112/19/76 97/18/77 143/18/78 144/19/78
f 117/42/79 108/42/79 132/42/79 157/42/79
f 176/18/71 175/22/80 98/22/74 97/18/77
f 99/24/67 100/26/67 125/26/67 126/24/67
f 107/40/67 108/42/67 117/42/67 118/40/67
f 110/46/81 111/48/82 129/48/83 130/46/83
f 162/34/79 174/36/66 105/36/84 104/34/85
f 163/48/72 161/50/86 112/50/76 111/48/82
f 161/19/86 176/18/71 97/18/77 112/19/76
f 164/32/87 162/34/79 104/34/85 103/32/88
f 165/46/89 163/48/72 111/48/82 110/46/81
f 166/30/90 164/32/87 103/32/88 102/30/91
f 167/44/92 165/46/89 110/46/81 109/44/69
f 168/28/93 166/30/90 102/30/91 101/28/94
f 169/42/95 167/44/92 109/44/69 108/42/68
f 170/26/96 168/28/93 101/28/94 100/26/97
f 171/40/98 169/42/95 108/42/68 107/40/99
f 172/24/100 170/26/96 100/26/97 99/24/73
f 173/38/101 171/40/98 107/40/99 106/38/102
f 175/22/80 172/24/100 99/24/73 98/22/74
f 174/36/66 173/38/101 106/38/102 105/36/84
f 132/42/67 131/44/67 145/44/67 157/42/67
f 138/30/67 137/32/67 148/32/67 146/30/67
f 130/46/67 129/48/67 150/48/67 147/46/67
f 144/19/67 143/18/67 152/18/67 149/19/67
f 136/34/67 135/36/67 153/36/67 151/34/67
f 142/22/67 141/24/67 156/24/67 154/22/67
f 134/38/67 133/40/67 158/40/67 155/38/67
f 140/26/67 139/28/67 159/28/67 160/26/67
f 123/30/80 102/30/80 138/30/80 146/30/80
f 116/85/94 117/85/97 157/85/103 145/85/103
f 125/26/86 100/26/86 140/26/86 160/26/86
f 115/46/101 110/46/101 130/46/101 147/46/101
f 106/38/102 107/40/99 133/40/104 134/38/104
f 128/85/84 113/85/85 149/85/105 152/85/105
f 103/32/98 122/32/98 148/32/98 137/32/98
f 114/85/88 115/85/91 147/85/106 150/85/106
f 113/50/95 112/50/95 144/50/95 149/50/95
f 104/34/85 105/36/84 135/36/105 136/34/105
f 126/85/99 127/85/102 154/85/104 156/85/104
f 111/48/100 114/48/100 150/48/100 129/48/100
f 121/34/96 104/34/96 136/34/96 151/34/96
f 102/30/91 103/32/88 137/32/106 138/30/106
f 124/85/69 125/85/68 160/85/70 159/85/70
f 97/18/93 128/18/93 152/18/93 143/18/93
f 105/36/92 120/36/92 153/36/92 135/36/92
f 100/26/97 101/28/94 139/28/103 140/26/103
f 122/85/82 123/85/81 146/85/83 148/85/83
f 127/22/89 98/22/89 142/22/89 154/22/89
f 119/38/90 106/38/90 134/38/90 155/38/90
f 98/22/74 99/24/73 141/24/75 142/22/75
f 120/85/77 121/85/76 151/85/78 153/85/78
f 99/24/87 126/24/87 156/24/87 141/24/87
f 88/36/107 87/38/108 173/38/108 174/36/107
f 95/22/109 94/24/110 172/24/110 175/22/109
f 87/38/108 86/40/111 171/40/111 173/38/108
f 94/24/110 93/26/112 170/26/112 172/24/110
f 86/40/111 85/42/113 169/42/113 171/40/111
f 93/26/112 92/28/114 168/28/114 170/26/112
f 85/42/113 84/44/115 167/44/115 169/42/113
f 92/28/114 91/30/116 166/30/116 168/28/114
f 84/44/115 83/46/117 165/46/117 167/44/115
f 91/30/116 90/32/118 164/32/118 166/30/116
f 83/46/117 82/48/119 163/48/119 165/46/117
f 90/32/118 89/34/120 162/34/120 164/32/118
f 81/19/121 96/18/122 176/18/122 161/19/121
f 82/48/119 81/50/121 161/50/121 163/48/119
f 89/34/120 88/36/107 174/36/107 162/34/120
f 96/18/122 95/22/109 175/22/109 176/18/122
f 128/18/84 127/22/102 179/22/101 177/18/66
f 177/18/67 179/22/67 180/85/67 181/26/67 182/85/67 183/30/67 184/85/67 185/34/67 186/85/67 187/38/67 188/85/67 189/42/67 190/85/67 191/46/67 192/85/67 178/50/67
f 120/36/77 119/38/74 187/38/80 186/36/71
f 127/85/102 126/85/99 180/85/98 179/85/101
f 119/85/74 118/85/73 188/85/100 187/85/80
f 126/24/99 125/26/68 181/26/95 180/24/98
f 118/40/73 117/42/97 189/42/96 188/40/100
f 125/85/68 124/85/69 182/85/92 181/85/95
f 117/85/97 116/85/94 190/85/93 189/85/96
f 124/28/69 123/30/81 183/30/89 182/28/92
f 116/44/94 115/46/91 191/46/90 190/44/93
f 123/85/81 122/85/82 184/85/72 183/85/89
f 115/85/91 114/85/88 192/85/87 191/85/90
f 122/32/82 121/34/76 185/34/86 184/32/72
f 113/85/85 128/85/84 177/85/66 178/85/79
f 114/48/88 113/50/85 178/50/79 192/48/87
f 121/85/76 120/85/77 186/85/71 185/85/86
